<svg xmlns="http://www.w3.org/2000/svg" viewBox="0 0 512 512" width="512" height="512">
  <!-- Background with rounded corners -->
  <rect width="512" height="512" fill="#3b82f6" rx="64"/>
  
  <!-- Network nodes (circles) -->
  <circle cx="128" cy="128" r="20" fill="white" opacity="0.9"/>
  <circle cx="384" cy="128" r="20" fill="white" opacity="0.9"/>
  <circle cx="128" cy="384" r="20" fill="white" opacity="0.9"/>
  <circle cx="384" cy="384" r="20" fill="white" opacity="0.9"/>
  <circle cx="256" cy="96" r="20" fill="white" opacity="0.9"/>
  <circle cx="256" cy="416" r="20" fill="white" opacity="0.9"/>
  
  <!-- Network connection lines -->
  <line x1="256" y1="256" x2="128" y2="128" stroke="white" stroke-width="8" opacity="0.6" stroke-linecap="round"/>
  <line x1="256" y1="256" x2="384" y2="128" stroke="white" stroke-width="8" opacity="0.6" stroke-linecap="round"/>
  <line x1="256" y1="256" x2="128" y2="384" stroke="white" stroke-width="8" opacity="0.6" stroke-linecap="round"/>
  <line x1="256" y1="256" x2="384" y2="384" stroke="white" stroke-width="8" opacity="0.6" stroke-linecap="round"/>
  <line x1="256" y1="256" x2="256" y2="96" stroke="white" stroke-width="8" opacity="0.6" stroke-linecap="round"/>
  <line x1="256" y1="256" x2="256" y2="416" stroke="white" stroke-width="8" opacity="0.6" stroke-linecap="round"/>
  
  <!-- Central property/house icon -->
  <g transform="translate(256, 256)">
    <!-- House base -->
    <path d="M-60 20 L-60 -40 L0 -80 L60 -40 L60 20 Z" fill="white" stroke="none"/>
    <!-- House roof -->
    <path d="M-60 -40 L0 -80 L60 -40" fill="#fbbf24" stroke="none"/>
    <!-- Door -->
    <rect x="-20" y="20" width="40" height="40" fill="#3b82f6" rx="4"/>
    <!-- Door handle -->
    <circle cx="10" cy="40" r="4" fill="white"/>
    <!-- Windows -->
    <rect x="-50" y="-20" width="20" height="20" fill="#3b82f6" rx="2"/>
    <rect x="30" y="-20" width="20" height="20" fill="#3b82f6" rx="2"/>
  </g>
</svg>
